<?xml version="1.0" encoding="UTF-8"?>
<svg version="1.1" xmlns="http://www.w3.org/2000/svg" width="192" height="192">
<path d="M0 0 C3.24205632 3.093771 5.60748777 5.73526765 6.81640625 10.16796875 C7.47640625 10.16796875 8.13640625 10.16796875 8.81640625 10.16796875 C18.2635858 27.19877463 21.3696421 43.44717965 16.01171875 62.3984375 C13.29278163 70.97286337 9.08347544 78.6325364 2.81640625 85.16796875 C2.15640625 85.16796875 1.49640625 85.16796875 0.81640625 85.16796875 C0.32140625 86.65296875 0.32140625 86.65296875 -0.18359375 88.16796875 C-0.84359375 88.16796875 -1.50359375 88.16796875 -2.18359375 88.16796875 C-2.18359375 88.82796875 -2.18359375 89.48796875 -2.18359375 90.16796875 C-16.94701099 101.44592493 -32.92436997 104.97473416 -51.18359375 103.16796875 C-67.06859673 100.49557013 -80.37579544 91.1189447 -89.87109375 78.41796875 C-99.47455045 64.1004865 -102.1868528 47.99393014 -99.05859375 31.16796875 C-97.45120488 24.25619661 -94.69585829 18.30528517 -91.18359375 12.16796875 C-90.66796875 11.23082031 -90.15234375 10.29367188 -89.62109375 9.328125 C-88.90953125 8.25884766 -88.90953125 8.25884766 -88.18359375 7.16796875 C-87.52359375 7.16796875 -86.86359375 7.16796875 -86.18359375 7.16796875 C-85.93609375 6.58789062 -85.68859375 6.0078125 -85.43359375 5.41015625 C-80.29775218 -3.80225957 -68.14331087 -10.40598627 -58.30859375 -13.30859375 C-37.35604413 -18.46969972 -16.44844268 -13.80021398 0 0 Z " fill="#FDFDFD" transform="translate(137.18359375,49.83203125)"/>
<path d="M0 0 C0.61875 0.45375 1.2375 0.9075 1.875 1.375 C2.74125 1.82875 3.6075 2.2825 4.5 2.75 C7.05406697 4.49751951 7.64158202 5.62527 8.875 8.375 C2.77718999 8.59584624 -2.34142935 8.38667675 -8.125 6.375 C-8.455 5.055 -8.785 3.735 -9.125 2.375 C-2.75462963 -0.81018519 -2.75462963 -0.81018519 0 0 Z " fill="#837E7B" transform="translate(99.125,81.625)"/>
<path d="M0 0 C1.175625 0.0825 2.35125 0.165 3.5625 0.25 C5.5625 3.25 5.5625 3.25 5.1875 6.4375 C4.98125 7.365625 4.775 8.29375 4.5625 9.25 C2.9125 9.58 1.2625 9.91 -0.4375 10.25 C-0.4375 11.24 -0.4375 12.23 -0.4375 13.25 C-1.4275 13.25 -2.4175 13.25 -3.4375 13.25 C-3.63147476 11.27145742 -3.81751321 9.2921352 -4 7.3125 C-4.10441406 6.21035156 -4.20882812 5.10820313 -4.31640625 3.97265625 C-4.35636719 3.07417969 -4.39632812 2.17570312 -4.4375 1.25 C-3.4375 0.25 -3.4375 0.25 0 0 Z " fill="#424242" transform="translate(90.4375,90.75)"/>
<path d="M0 0 C0.99 0 1.98 0 3 0 C3.33 2.31 3.66 4.62 4 7 C4.66 7 5.32 7 6 7 C6.185625 5.824375 6.185625 5.824375 6.375 4.625 C7 2 7 2 9 0 C11.625 -0.125 11.625 -0.125 14 0 C14.33 1.32 14.66 2.64 15 4 C14.01 4 13.02 4 12 4 C12 3.01 12 2.02 12 1 C11.01 1.495 11.01 1.495 10 2 C10.27034634 4.43717258 10.27034634 4.43717258 11 7 C11.99 7.66 12.98 8.32 14 9 C9.29654425 10.21379503 4.82569313 10.07202527 0 10 C0 6.7 0 3.4 0 0 Z " fill="#6B6B6B" transform="translate(97,91)"/>
<path d="M0 0 C0.66 0 1.32 0 2 0 C2 0.99 2 1.98 2 3 C3.98 3 5.96 3 8 3 C7.67 5.97 7.34 8.94 7 12 C4.36 12.33 1.72 12.66 -1 13 C-1.22245393 11.39773045 -1.42746669 9.79303233 -1.625 8.1875 C-1.74101563 7.29417969 -1.85703125 6.40085937 -1.9765625 5.48046875 C-2 3 -2 3 0 0 Z " fill="#D3D3D3" transform="translate(73,88)"/>
<path d="M0 0 C2.5 0.25 2.5 0.25 4.5 2.25 C4.625 5.875 4.625 5.875 4.5 9.25 C1.125 9.875 1.125 9.875 -2.5 10.25 C-4.5 8.25 -4.5 8.25 -4.75 5.25 C-4.43608753 1.48305032 -3.83691092 0.38369109 0 0 Z " fill="#959595" transform="translate(117.5,90.75)"/>
<path d="M0 0 C0.75410156 0.00451172 1.50820312 0.00902344 2.28515625 0.01367188 C4.14847127 0.02546501 6.01174555 0.04340058 7.875 0.0625 C7.875 0.7225 7.875 1.3825 7.875 2.0625 C7.070625 2.51625 6.26625 2.97 5.4375 3.4375 C2.70593143 4.7750362 2.70593143 4.7750362 2.25 7.1875 C2.12625 7.80625 2.0025 8.425 1.875 9.0625 C0.885 9.3925 -0.105 9.7225 -1.125 10.0625 C-1.125 7.4225 -1.125 4.7825 -1.125 2.0625 C-2.115 2.0625 -3.105 2.0625 -4.125 2.0625 C-4.125 5.3625 -4.125 8.6625 -4.125 12.0625 C-4.785 11.7325 -5.445 11.4025 -6.125 11.0625 C-6.104375 10.11375 -6.08375 9.165 -6.0625 8.1875 C-5.89948174 5.15583717 -5.89948174 5.15583717 -7.125 3.0625 C-8.115 2.4025 -9.105 1.7425 -10.125 1.0625 C-6.93675432 -0.53162284 -3.49603338 -0.03924735 0 0 Z " fill="#D6D6D6" transform="translate(101.125,88.9375)"/>
<path d="M0 0 C0.78375 0.04125 1.5675 0.0825 2.375 0.125 C2.705 1.445 3.035 2.765 3.375 4.125 C2.385 4.125 1.395 4.125 0.375 4.125 C0.375 3.135 0.375 2.145 0.375 1.125 C-0.615 1.62 -0.615 1.62 -1.625 2.125 C-1.35465366 4.56217258 -1.35465366 4.56217258 -0.625 7.125 C0.365 7.785 1.355 8.445 2.375 9.125 C0 9.75 0 9.75 -2.625 10.125 C-4.625 8.125 -4.625 8.125 -4.875 5.125 C-4.55416156 1.2749387 -3.94115238 0.18767392 0 0 Z " fill="#383838" transform="translate(108.625,90.875)"/>
<path d="M0 0 C0.66 0 1.32 0 2 0 C2 0.99 2 1.98 2 3 C3.32 2.67 4.64 2.34 6 2 C6.33 3.98 6.66 5.96 7 8 C5.25 8.75 5.25 8.75 3 9 C0.6875 7.375 0.6875 7.375 -1 5 C-0.75 2.25 -0.75 2.25 0 0 Z " fill="#D2D2D2" transform="translate(107,92)"/>
<path d="M0 0 C0.99 0.33 1.98 0.66 3 1 C2.67 3.31 2.34 5.62 2 8 C0.68 8 -0.64 8 -2 8 C-1.47731534 5.23723823 -0.89130413 2.6739124 0 0 Z " fill="#222222" transform="translate(83,92)"/>
<path d="M0 0 C0.33 0 0.66 0 1 0 C1 3.3 1 6.6 1 10 C1.99 10.33 2.98 10.66 4 11 C2.35 11.33 0.7 11.66 -1 12 C-1.22162329 10.37675914 -1.42689803 8.751279 -1.625 7.125 C-1.74101563 6.22007813 -1.85703125 5.31515625 -1.9765625 4.3828125 C-1.98429687 3.59648438 -1.99203125 2.81015625 -2 2 C-1.34 1.34 -0.68 0.68 0 0 Z " fill="#2F2F2F" transform="translate(73,89)"/>
<path d="M0 0 C0.66 0 1.32 0 2 0 C1.67 2.97 1.34 5.94 1 9 C0.01 8.67 -0.98 8.34 -2 8 C-2.125 5.125 -2.125 5.125 -2 2 C-1.34 1.34 -0.68 0.68 0 0 Z " fill="#1A1A1A" transform="translate(79,91)"/>
<path d="M0 0 C2.97 0 5.94 0 9 0 C9 0.66 9 1.32 9 2 C9.99 2.33 10.98 2.66 12 3 C10.37509046 3.02698189 8.75005367 3.04638757 7.125 3.0625 C5.76761719 3.07990234 5.76761719 3.07990234 4.3828125 3.09765625 C2 3 2 3 0 2 C0 1.34 0 0.68 0 0 Z " fill="#454241" transform="translate(96,87)"/>
<path d="M0 0 C1.65 0 3.3 0 5 0 C4.1875 3.4375 4.1875 3.4375 3 7 C2.01 7.33 1.02 7.66 0 8 C0 5.36 0 2.72 0 0 Z " fill="#F5F5F5" transform="translate(100,91)"/>
<path d="M0 0 C0.99 0.33 1.98 0.66 3 1 C3 3.31 3 5.62 3 8 C2.01 8 1.02 8 0 8 C0 5.36 0 2.72 0 0 Z " fill="#444444" transform="translate(119,92)"/>
<path d="M0 0 C0.99 0 1.98 0 3 0 C3 0.66 3 1.32 3 2 C3.99 1.67 4.98 1.34 6 1 C6.66 1.66 7.32 2.32 8 3 C7.34 3 6.68 3 6 3 C6 3.66 6 4.32 6 5 C4.35 4.67 2.7 4.34 1 4 C0.67 2.68 0.34 1.36 0 0 Z " fill="#6A6764" transform="translate(90,84)"/>
<path d="M0 0 C0.99 0 1.98 0 3 0 C4.125 5.75 4.125 5.75 3 8 C2.34 8 1.68 8 1 8 C0.67 5.36 0.34 2.72 0 0 Z " fill="#202020" transform="translate(92,92)"/>
<path d="M0 0 C0.99 0 1.98 0 3 0 C3 1.98 3 3.96 3 6 C2.01 6.33 1.02 6.66 0 7 C0 4.69 0 2.38 0 0 Z " fill="#EFEEEF" transform="translate(90,93)"/>
<path d="M0 0 C0.99 0 1.98 0 3 0 C3 2.97 3 5.94 3 9 C2.34 9 1.68 9 1 9 C0.67 6.03 0.34 3.06 0 0 Z " fill="#3B3B3B" transform="translate(97,91)"/>
</svg>
